<svg width="23" height="24" viewBox="0 0 23 24" fill="none" xmlns="http://www.w3.org/2000/svg">
<path d="M11.5 0.5C5.152 0.5 0 5.652 0 12C0 18.348 5.152 23.5 11.5 23.5C17.848 23.5 23 18.348 23 12C23 5.652 17.848 0.5 11.5 0.5ZM11.5 3.95C13.409 3.95 14.95 5.491 14.95 7.4C14.95 9.309 13.409 10.85 11.5 10.85C9.591 10.85 8.05 9.309 8.05 7.4C8.05 5.491 9.591 3.95 11.5 3.95ZM11.5 20.28C10.1336 20.28 8.78851 19.9419 7.58457 19.2958C6.38063 18.6496 5.35529 17.7156 4.6 16.577C4.6345 14.2885 9.2 13.035 11.5 13.035C13.7885 13.035 18.3655 14.2885 18.4 16.577C17.6447 17.7156 16.6194 18.6496 15.4154 19.2958C14.2115 19.9419 12.8664 20.28 11.5 20.28Z" fill="#D9D9D9"/>
</svg>
